inDegrees=yes
name=ik_MT_01200627-001-000_orientations_updatedTime
DataType=double
version=3
OpenSimVersion=4.5-2024-07-10-f38669b70
endheader
time	pelvis_tilt	pelvis_list	pelvis_rotation	pelvis_tx	pelvis_ty	pelvis_tz	hip_flexion_r	hip_adduction_r	hip_rotation_r	knee_angle_r	knee_angle_r_beta	ankle_angle_r	subtalar_angle_r	mtp_angle_r	hip_flexion_l	hip_adduction_l	hip_rotation_l	knee_angle_l	knee_angle_l_beta	ankle_angle_l	subtalar_angle_l	mtp_angle_l	lumbar_extension	lumbar_bending	lumbar_rotation	arm_flex_r	arm_add_r	arm_rot_r	elbow_flex_r	pro_sup_r	wrist_flex_r	wrist_dev_r	arm_flex_l	arm_add_l	arm_rot_l	elbow_flex_l	pro_sup_l	wrist_flex_l	wrist_dev_l
1748342930.915505	0.4076063317114678	-2.488724972945695	-81.75314192025961	0	0.9399999943917833	0	79.99999999525214	-7.000000001125469	0	79.99999999792263	1.396263401559207	0	0	0	79.99999999525214	-7.000000004501878	0	79.99999999802388	1.396263401560974	0	0	0	-4.629484240019342	-0.02962059882755863	-0.6259576686381386	-6.115017355379664	-14.31558811676566	18.95743282446663	4.146743803486046	84.97510180543462	-5.374739739558181	3.19783132713533	2.937998339001751	-15.46191772649137	27.37964379773759	0.2359933661946646	63.61153195588524	-17.16510605143661	-8.890676473091135
1748342930.925505	0.4108108318902138	-2.492966922190667	-81.75364636174224	0	0.9399999943917833	0	79.99999999525214	-7.000000001125469	0	79.99999999792263	1.396263401559207	0	0	0	79.99999999525214	-7.000000004501878	0	79.99999999802388	1.396263401560974	0	0	0	-4.648809227850304	-0.02613453733733681	-0.6121067909061914	-6.179275843732348	-14.3780555288714	18.78226885469349	4.364346090099727	85.19620800954087	-5.417150427227023	3.172099980359993	2.961874288380052	-15.46763290917786	27.3274879855462	0.2540298443235243	63.79571679684553	-17.11479364326292	-8.909553057659274
1748342930.935505	0.4077017336253941	-2.488881760734055	-81.76471733140555	0	0.9399999943917833	0	79.99999999525214	-7.000000001125469	0	79.99999999792263	1.396263401559207	0	0	0	79.99999999525214	-7.000000004501878	0	79.99999999802388	1.396263401560974	0	0	0	-4.663534029224675	-0.01835403541756987	-0.596289370043412	-6.226802548931007	-14.42729271376248	18.66643268970483	4.565153742041201	85.35707169675126	-5.442377650155112	3.142162861692299	2.985778306812695	-15.46953577781222	27.30363102086287	0.2734967861361883	63.93041041016384	-17.07039656116395	-8.924754555760543
1748342930.945505	0.4001850864371424	-2.487319181650515	-81.76524078283326	0	0.9399999943917833	0	79.99999999525214	-7.000000001125469	0	79.99999999792263	1.396263401559207	0	0	0	79.99999999525214	-7.000000004501878	0	79.99999999802388	1.396263401560974	0	0	0	-4.678157220180755	-0.0112624269014599	-0.5903416298954444	-6.26226447068406	-14.44297378078489	18.61186982811056	4.742628366522109	85.4457385644918	-5.448811150743874	3.106059293111507	3.000384979923925	-15.46077180722253	27.32049165623845	0.2993549001649462	64.03807914477898	-17.0209427970287	-8.938199730595251
1748342930.955505	0.3927877265147368	-2.491281903481979	-81.76957785045114	0	0.9399999943917833	0	79.99999999525214	-7.000000001125469	0	79.99999999792263	1.396263401559207	0	0	0	79.99999999525214	-7.000000004501878	0	79.99999999802388	1.396263401560974	0	0	0	-4.691005031649984	-0.007838631315562158	-0.5796627839617731	-6.277757980366548	-14.46043057914206	18.60755158801132	4.887735775835718	85.4854171861145	-5.450443918103899	3.076447016509606	2.997158555808555	-15.46248849192567	27.36533695618063	0.3275531228793778	64.11884705340582	-16.98750383158083	-8.938474768225143
1748342930.965505	0.398195336778607	-2.482497342666801	-81.76328314727851	0	0.9399999943917833	0	79.99999999525214	-7.000000001125469	0	79.99999999792263	1.396263401559207	0	0	0	79.99999999525214	-7.000000004501878	0	79.99999999802388	1.396263401560974	0	0	0	-4.710864047636274	0.0004735755979431379	-0.5624350292925666	-6.30416719509527	-14.49640810583746	18.61105324225707	5.072193753037128	85.46594231435469	-5.457790982409778	3.069741795798707	3.017349192346042	-15.45552034120683	27.4342031946989	0.3553734837033086	64.20703026554662	-16.92666163403533	-8.973722980557438
1748342930.975505	0.3943648360771339	-2.484994645632645	-81.76823832103885	0	0.9399999943917833	0	79.99999999525214	-7.000000001125469	0	79.99999999792263	1.396263401559207	0	0	0	79.99999999525214	-7.000000004501878	0	79.99999999802388	1.396263401560974	0	0	0	-4.727265303983382	0.01002876257699339	-0.5489436913135558	-6.318255642496874	-14.51101271163454	18.66105564201731	5.213819450956669	85.43653590110587	-5.447701336803983	3.065836749855401	3.015067336904172	-15.442497401684	27.5025976978505	0.3884933630156402	64.27226041688586	-16.89203983410198	-8.98868582150369
1748342930.985505	0.3931872702169206	-2.489209431573305	-81.766648563969	0	0.9399999943917833	0	79.99999999525214	-7.000000001125469	0	79.99999999792263	1.396263401559207	0	0	0	79.99999999525214	-7.000000004501878	0	79.99999999802388	1.396263401560974	0	0	0	-4.7501021013506	0.01940766685511138	-0.537631130486628	-6.326586730395384	-14.53036214050103	18.71452488663552	5.344500799770471	85.38884352651705	-5.443487678584935	3.0670150948218	3.015950569534962	-15.43685464495294	27.57837290458118	0.419812436226733	64.33416118977919	-16.84701467296184	-9.00573513575087
1748342930.995505	0.3903324129528619	-2.494613569071205	-81.76582928157876	0	0.9399999943917833	0	79.99999999525214	-7.000000001125469	0	79.99999999792263	1.396263401559207	0	0	0	79.99999999525214	-7.000000004501878	0	79.99999999802388	1.396263401560974	0	0	0	-4.76741499786304	0.02385506897781061	-0.5330575595744175	-6.323629713487769	-14.52888453839026	18.76592283002176	5.434989747741916	85.37663765538251	-5.43974288765897	3.055855852887001	3.002744456812236	-15.4254412309502	27.65623307809321	0.4551751872093305	64.37811435631613	-16.81108664146215	-9.002810486668464
1748342931.005505	0.3997956971914403	-2.488029946650198	-81.77028365150599	0	0.9399999943917833	0	79.99999999525214	-7.000000001125469	0	79.99999999792263	1.396263401559207	0	0	0	79.99999999525214	-7.000000004501878	0	79.99999999802388	1.396263401560974	0	0	0	-4.771357652114157	0.02813298673962521	-0.5309641231479827	-6.28838801464382	-14.52977624575329	18.80048854109393	5.490497445022777	85.38162295013632	-5.444876017855066	3.036872939661023	2.968894376353735	-15.4239591528251	27.724485909481	0.5174363071214667	64.41584003266388	-16.79234774955427	-8.9913392917717
1748342931.015505	0.3933057498778801	-2.495254103221427	-81.76597793112052	0	0.9399999943917833	0	79.99999999525214	-7.000000001125469	0	79.99999999792263	1.396263401559207	0	0	0	79.99999999525214	-7.000000004501878	0	79.99999999802388	1.396263401560974	0	0	0	-4.812025392692044	0.041224840922758	-0.514020914406788	-6.307788947682086	-14.54736281603163	18.82473157010604	5.623378789005548	85.34560709223776	-5.443423965459446	3.060994005242651	3.025065793114812	-15.4043366091948	27.8502664113287	0.5005062635571464	64.42157926352054	-16.69922060380246	-8.962675307505096
1748342931.025505	0.39134943478928	-2.507919097238936	-81.76716416569776	0	0.9399999943917833	0	79.99999999525214	-7.000000001125469	0	79.99999999792263	1.396263401559207	0	0	0	79.99999999525214	-7.000000004501878	0	79.99999999802388	1.396263401560974	0	0	0	-4.853432977077019	0.04490707934783711	-0.5035513484642006	-6.273620224017296	-14.54710398704888	18.86473496212539	5.6666271546485	85.32482281027538	-5.435040379612024	3.066475741880863	3.03691891632935	-15.39827996619335	27.93420644936241	0.518930338783917	64.43551461686064	-16.63934596665529	-8.924379625385468
1748342931.035505	0.3966598204101147	-2.522519727695195	-81.72814783589622	0	0.9399999943917833	0	79.99999999525214	-7.000000001125469	0	79.99999999792263	1.396263401559207	0	0	0	79.99999999525214	-7.000000004501878	0	79.99999999802388	1.396263401560974	0	0	0	-4.885747968606295	0.06722857375110364	-0.5342778892070112	-6.324131288506861	-14.61530372569474	18.96472064888655	5.906015082088919	85.17059204610935	-5.40001642664377	3.181813596768152	2.802714916492412	-15.57523462183656	27.93221678520171	1.148710949124825	64.459090940313	-16.69078248274458	-8.607488876958731
